<svg width="64" height="64" viewBox="0 0 64 64" fill="none" xmlns="http://www.w3.org/2000/svg">
<g filter="url(#filter0_d_20005128_10871)">
<rect x="10" y="2" width="44" height="44" rx="6" fill="#6366F1"/>
<path d="M42 16.0293C39.3099 15.5939 37.3119 16.1085 36.0058 17.573C34.6998 19.0376 34.0468 21.1948 34.0468 24.0448V32.1196H42V24.0448H37.9064C37.692 22.6198 37.8869 21.462 38.4912 20.5714C39.115 19.6808 40.1287 19.2949 41.5322 19.4136L42 16.0293ZM29.9532 16.0293C27.2632 15.5939 25.2651 16.1085 23.9591 17.573C22.653 19.0376 22 21.1948 22 24.0448V32.1196H29.9532V24.0448H25.8596C25.6452 22.6198 25.8402 21.462 26.4444 20.5714C27.0682 19.6808 28.0819 19.2949 29.4854 19.4136L29.9532 16.0293Z" fill="white"/>
</g>
<defs>
<filter id="filter0_d_20005128_10871" x="0" y="0" width="64" height="64" filterUnits="userSpaceOnUse" color-interpolation-filters="sRGB">
<feFlood flood-opacity="0" result="BackgroundImageFix"/>
<feColorMatrix in="SourceAlpha" type="matrix" values="0 0 0 0 0 0 0 0 0 0 0 0 0 0 0 0 0 0 127 0" result="hardAlpha"/>
<feMorphology radius="8" operator="erode" in="SourceAlpha" result="effect1_dropShadow_20005128_10871"/>
<feOffset dy="8"/>
<feGaussianBlur stdDeviation="9"/>
<feColorMatrix type="matrix" values="0 0 0 0 0.388235 0 0 0 0 0.4 0 0 0 0 0.945098 0 0 0 0.9 0"/>
<feBlend mode="normal" in2="BackgroundImageFix" result="effect1_dropShadow_20005128_10871"/>
<feBlend mode="normal" in="SourceGraphic" in2="effect1_dropShadow_20005128_10871" result="shape"/>
</filter>
</defs>
</svg>
