<svg width="88" height="16" viewBox="0 0 88 16" fill="none" xmlns="http://www.w3.org/2000/svg">
<path d="M14.6313 6.11937C14.5453 5.86737 14.3179 5.68937 14.0526 5.66871L10.2519 5.36671L8.60728 1.72604C8.49995 1.48671 8.26195 1.33337 7.99995 1.33337C7.73795 1.33337 7.49995 1.48671 7.39261 1.72537L5.74795 5.36671L1.94728 5.66871C1.68661 5.68937 1.46195 5.86071 1.37328 6.10671C1.28461 6.35271 1.34728 6.62804 1.53461 6.81071L4.34328 9.54871L3.34995 13.85C3.28861 14.116 3.39595 14.3927 3.62061 14.548C3.73528 14.6267 3.86728 14.6667 3.99995 14.6667C4.12861 14.6667 4.25795 14.6294 4.36995 14.5547L7.99995 12.1347L11.6299 14.5547C11.8619 14.7094 12.1666 14.7034 12.3933 14.5387C12.6186 14.374 12.7179 14.0854 12.6413 13.8174L11.4219 9.55071L14.4459 6.82937C14.6439 6.65071 14.7166 6.37204 14.6313 6.11937Z" fill="#FFBA08"/>
<path d="M32.6313 6.11937C32.5453 5.86737 32.3179 5.68937 32.0526 5.66871L28.2519 5.36671L26.6073 1.72604C26.4999 1.48671 26.2619 1.33337 25.9999 1.33337C25.7379 1.33337 25.4999 1.48671 25.3926 1.72537L23.7479 5.36671L19.9473 5.66871C19.6866 5.68937 19.4619 5.86071 19.3733 6.10671C19.2846 6.35271 19.3473 6.62804 19.5346 6.81071L22.3433 9.54871L21.3499 13.85C21.2886 14.116 21.3959 14.3927 21.6206 14.548C21.7353 14.6267 21.8673 14.6667 21.9999 14.6667C22.1286 14.6667 22.2579 14.6294 22.3699 14.5547L25.9999 12.1347L29.6299 14.5547C29.8619 14.7094 30.1666 14.7034 30.3933 14.5387C30.6186 14.374 30.7179 14.0854 30.6413 13.8174L29.4219 9.55071L32.4459 6.82937C32.6439 6.65071 32.7166 6.37204 32.6313 6.11937Z" fill="#FFBA08"/>
<path d="M50.6313 6.11937C50.5453 5.86737 50.3179 5.68937 50.0526 5.66871L46.2519 5.36671L44.6073 1.72604C44.4999 1.48671 44.2619 1.33337 43.9999 1.33337C43.7379 1.33337 43.4999 1.48671 43.3926 1.72537L41.7479 5.36671L37.9473 5.66871C37.6866 5.68937 37.4619 5.86071 37.3733 6.10671C37.2846 6.35271 37.3473 6.62804 37.5346 6.81071L40.3433 9.54871L39.3499 13.85C39.2886 14.116 39.3959 14.3927 39.6206 14.548C39.7353 14.6267 39.8673 14.6667 39.9999 14.6667C40.1286 14.6667 40.2579 14.6294 40.3699 14.5547L43.9999 12.1347L47.6299 14.5547C47.8619 14.7094 48.1666 14.7034 48.3933 14.5387C48.6186 14.374 48.7179 14.0854 48.6413 13.8174L47.4219 9.55071L50.4459 6.82937C50.6439 6.65071 50.7166 6.37204 50.6313 6.11937Z" fill="#FFBA08"/>
<path d="M68.6313 6.11937C68.5453 5.86737 68.3179 5.68937 68.0526 5.66871L64.2519 5.36671L62.6073 1.72604C62.4999 1.48671 62.2619 1.33337 61.9999 1.33337C61.7379 1.33337 61.4999 1.48671 61.3926 1.72537L59.7479 5.36671L55.9473 5.66871C55.6866 5.68937 55.4619 5.86071 55.3733 6.10671C55.2846 6.35271 55.3473 6.62804 55.5346 6.81071L58.3433 9.54871L57.3499 13.85C57.2886 14.116 57.3959 14.3927 57.6206 14.548C57.7353 14.6267 57.8673 14.6667 57.9999 14.6667C58.1286 14.6667 58.2579 14.6294 58.3699 14.5547L61.9999 12.1347L65.6299 14.5547C65.8619 14.7094 66.1666 14.7034 66.3933 14.5387C66.6186 14.374 66.7179 14.0854 66.6413 13.8174L65.4219 9.55071L68.4459 6.82937C68.6439 6.65071 68.7166 6.37204 68.6313 6.11937Z" fill="#FFBA08"/>
<path d="M86.6313 6.11937C86.5453 5.86737 86.3179 5.68937 86.0526 5.66871L82.2519 5.36671L80.6073 1.72604C80.4999 1.48671 80.2619 1.33337 79.9999 1.33337C79.7379 1.33337 79.4999 1.48671 79.3926 1.72537L77.7479 5.36671L73.9473 5.66871C73.6866 5.68937 73.4619 5.86071 73.3733 6.10671C73.2846 6.35271 73.3473 6.62804 73.5346 6.81071L76.3433 9.54871L75.3499 13.85C75.2886 14.116 75.3959 14.3927 75.6206 14.548C75.7353 14.6267 75.8673 14.6667 75.9999 14.6667C76.1286 14.6667 76.2579 14.6294 76.3699 14.5547L79.9999 12.1347L83.6299 14.5547C83.8619 14.7094 84.1666 14.7034 84.3933 14.5387C84.6186 14.374 84.7179 14.0854 84.6413 13.8174L83.4219 9.55071L86.4459 6.82937C86.6439 6.65071 86.7166 6.37204 86.6313 6.11937Z" fill="#FFBA08"/>
</svg>
