<svg width="88" height="16" viewBox="0 0 88 16" fill="none" xmlns="http://www.w3.org/2000/svg">
<path d="M14.6313 6.11937C14.5453 5.86737 14.3179 5.68937 14.0526 5.66871L10.2519 5.36671L8.60728 1.72604C8.49995 1.48671 8.26195 1.33337 7.99995 1.33337C7.73795 1.33337 7.49995 1.48671 7.39261 1.72537L5.74795 5.36671L1.94728 5.66871C1.68661 5.68937 1.46195 5.86071 1.37328 6.10671C1.28461 6.35271 1.34728 6.62804 1.53461 6.81071L4.34328 9.54871L3.34995 13.85C3.28861 14.116 3.39595 14.3927 3.62061 14.548C3.73528 14.6267 3.86728 14.6667 3.99995 14.6667C4.12861 14.6667 4.25795 14.6294 4.36995 14.5547L7.99995 12.1347L11.6299 14.5547C11.8619 14.7094 12.1666 14.7034 12.3933 14.5387C12.6186 14.374 12.7179 14.0854 12.6413 13.8174L11.4219 9.55071L14.4459 6.82937C14.6439 6.65071 14.7166 6.37204 14.6313 6.11937Z" fill="#FFBA08"/>
<path d="M32.6313 6.11937C32.5453 5.86737 32.3179 5.68937 32.0526 5.66871L28.2519 5.36671L26.6073 1.72604C26.4999 1.48671 26.2619 1.33337 25.9999 1.33337C25.7379 1.33337 25.4999 1.48671 25.3926 1.72537L23.7479 5.36671L19.9473 5.66871C19.6866 5.68937 19.4619 5.86071 19.3733 6.10671C19.2846 6.35271 19.3473 6.62804 19.5346 6.81071L22.3433 9.54871L21.3499 13.85C21.2886 14.116 21.3959 14.3927 21.6206 14.548C21.7353 14.6267 21.8673 14.6667 21.9999 14.6667C22.1286 14.6667 22.2579 14.6294 22.3699 14.5547L25.9999 12.1347L29.6299 14.5547C29.8619 14.7094 30.1666 14.7034 30.3933 14.5387C30.6186 14.374 30.7179 14.0854 30.6413 13.8174L29.4219 9.55071L32.4459 6.82937C32.6439 6.65071 32.7166 6.37204 32.6313 6.11937Z" fill="#FFBA08"/>
<path d="M50.6313 6.11937C50.5453 5.86737 50.3179 5.68937 50.0526 5.66871L46.2519 5.36671L44.6073 1.72604C44.4999 1.48671 44.2619 1.33337 43.9999 1.33337C43.7379 1.33337 43.4999 1.48671 43.3926 1.72537L41.7479 5.36671L37.9473 5.66871C37.6866 5.68937 37.4619 5.86071 37.3733 6.10671C37.2846 6.35271 37.3473 6.62804 37.5346 6.81071L40.3433 9.54871L39.3499 13.85C39.2886 14.116 39.3959 14.3927 39.6206 14.548C39.7353 14.6267 39.8673 14.6667 39.9999 14.6667C40.1286 14.6667 40.2579 14.6294 40.3699 14.5547L43.9999 12.1347L47.6299 14.5547C47.8619 14.7094 48.1666 14.7034 48.3933 14.5387C48.6186 14.374 48.7179 14.0854 48.6413 13.8174L47.4219 9.55071L50.4459 6.82937C50.6439 6.65071 50.7166 6.37204 50.6313 6.11937Z" fill="#FFBA08"/>
<path d="M68.6313 6.11937C68.5453 5.86737 68.3179 5.68937 68.0526 5.66871L64.2519 5.36671L62.6073 1.72604C62.4999 1.48671 62.2619 1.33337 61.9999 1.33337C61.7379 1.33337 61.4999 1.48671 61.3926 1.72537L59.7479 5.36671L55.9473 5.66871C55.6866 5.68937 55.4619 5.86071 55.3733 6.10671C55.2846 6.35271 55.3473 6.62804 55.5346 6.81071L58.3433 9.54871L57.3499 13.85C57.2886 14.116 57.3959 14.3927 57.6206 14.548C57.7353 14.6267 57.8673 14.6667 57.9999 14.6667C58.1286 14.6667 58.2579 14.6294 58.3699 14.5547L61.9999 12.1347L65.6299 14.5547C65.8619 14.7094 66.1666 14.7034 66.3933 14.5387C66.6186 14.374 66.7179 14.0854 66.6413 13.8174L65.4219 9.55071L68.4459 6.82937C68.6439 6.65071 68.7166 6.37204 68.6313 6.11937Z" fill="#FFBA08"/>
<path d="M76.344 9.54871L75.3507 13.85C75.2893 14.116 75.396 14.3927 75.6213 14.548C75.7353 14.6267 75.8673 14.6667 76 14.6667C76.1287 14.6667 76.258 14.6294 76.37 14.5547L80 12.1347L83.63 14.5547C83.862 14.7094 84.1667 14.7034 84.3933 14.5387C84.6187 14.374 84.718 14.0854 84.6413 13.8174L83.422 9.55071L86.446 6.82937C86.644 6.65071 86.7167 6.37204 86.6313 6.12004C86.5453 5.86804 86.318 5.69071 86.0527 5.66937L82.252 5.36671L80.6073 1.72604C80.5 1.48671 80.262 1.33337 80 1.33337C79.738 1.33337 79.5 1.48671 79.3927 1.72604L77.748 5.36671L73.9473 5.66871C73.686 5.68937 73.4613 5.86071 73.3733 6.10671C73.284 6.35271 73.348 6.62804 73.5347 6.81071L76.344 9.54871ZM78.246 6.66471C78.488 6.64537 78.7013 6.49604 78.8007 6.27404L80 3.62004L81.1993 6.27404C81.2987 6.49604 81.512 6.64537 81.754 6.66471L84.402 6.87471L82.2213 8.83737C82.032 9.00804 81.9567 9.27071 82.026 9.51604L82.8613 12.4394L80.3707 10.7787C80.1467 10.6287 79.8553 10.6287 79.6313 10.7787L77.0287 12.514L77.7287 9.48337C77.7807 9.25671 77.7113 9.01871 77.5447 8.85671L75.5193 6.88204L78.246 6.66471Z" fill="#B4B7C9"/>
</svg>
