<svg width="60" height="60" viewBox="0 0 60 60" fill="none" xmlns="http://www.w3.org/2000/svg">
<rect width="60" height="60" rx="8" fill="#6366F1" fill-opacity="0.08"/>
<path d="M38.5312 32.4129C39.1354 32.4129 39.625 32.9025 39.625 33.5066V34.8191C39.625 35.4232 39.1354 35.9129 38.5312 35.9129H36.0156C35.4115 35.9129 34.9219 35.4232 34.9219 34.8191V33.5066C34.9219 32.9025 35.4115 32.4129 36.0156 32.4129H38.5312ZM41.8125 30.4441V27.1629H18.1875V35.9062C18.1875 37.1124 19.1689 38.0938 20.375 38.0938H39.625C40.8311 38.0938 41.8125 37.1124 41.8125 35.9062C41.8125 35.3021 42.3021 34.8125 42.9062 34.8125C43.5104 34.8125 44 35.3021 44 35.9062C44 38.3187 42.0374 40.2812 39.625 40.2812H20.375C17.9626 40.2812 16 38.3187 16 35.9062V24.0938C16 21.6813 17.9626 19.7188 20.375 19.7188H39.625C42.0374 19.7188 44 21.6813 44 24.0938V30.4441C44 31.0482 43.5104 31.5379 42.9062 31.5379C42.3021 31.5379 41.8125 31.0482 41.8125 30.4441ZM41.8125 24.9754V24.0938C41.8125 22.8876 40.8311 21.9062 39.625 21.9062H20.375C19.1689 21.9062 18.1875 22.8876 18.1875 24.0938V24.9754H41.8125ZM21.4688 29.3504C20.8646 29.3504 20.375 29.84 20.375 30.4441C20.375 31.0482 20.8646 31.5379 21.4688 31.5379H30.4922C31.0963 31.5379 31.5859 31.0482 31.5859 30.4441C31.5859 29.84 31.0963 29.3504 30.4922 29.3504H21.4688Z" fill="url(#paint0_linear_20005128_10903)"/>
<defs>
<linearGradient id="paint0_linear_20005128_10903" x1="16" y1="30.0492" x2="44" y2="30.0492" gradientUnits="userSpaceOnUse">
<stop stop-color="#6366F1"/>
<stop offset="0.5" stop-color="#8B5CF6"/>
<stop offset="1" stop-color="#D946EF"/>
</linearGradient>
</defs>
</svg>
