<svg width="60" height="60" viewBox="0 0 60 60" fill="none" xmlns="http://www.w3.org/2000/svg">
<rect width="60" height="60" rx="8" fill="#6366F1" fill-opacity="0.08"/>
<g clip-path="url(#clip0_20005128_10908)">
<path d="M38.1484 30.0551C36.3391 30.0551 34.8672 31.527 34.8672 33.3363C34.8672 35.1456 36.3391 36.6175 38.1484 36.6175H42.7968C42.8154 36.6175 42.8335 36.6157 42.8518 36.6148C42.8699 36.6156 42.8878 36.6175 42.9062 36.6175C43.5103 36.6175 43.9999 36.1278 43.9999 35.5237V26.9378C43.9999 25.4817 43.2843 24.1903 42.1868 23.3946L38.4659 17.2904C38.3142 17.0415 38.0693 16.8634 37.7857 16.7958C37.5021 16.7281 37.2033 16.7765 36.9555 16.9302L34.2115 18.6318L32.974 16.5376C32.8252 16.2859 32.5818 16.1042 32.2982 16.0331C32.0145 15.962 31.7141 16.0076 31.4643 16.1594L20.9278 22.5628H19.2812C18.6873 22.5628 18.2024 22.0869 18.1878 21.4964C18.2024 20.9059 18.6873 20.43 19.2812 20.43H21.3047C21.9088 20.43 22.3984 19.9404 22.3984 19.3363C22.3984 18.7322 21.9088 18.2425 21.3047 18.2425H19.2812C17.7337 18.2425 16.4331 19.3195 16.0891 20.7633C16.0319 20.896 16 21.042 16 21.1956V21.4691V21.5238V39.6253C16 42.0377 17.9626 44.0003 20.375 44.0003H39.625C41.5111 44.0003 43.1793 42.7988 43.7758 41.0105C43.967 40.4375 43.6574 39.818 43.0844 39.6268C42.5114 39.4357 41.8919 39.7452 41.7007 40.3182C41.4025 41.2122 40.5684 41.8128 39.625 41.8128H20.375C19.1688 41.8128 18.1875 40.8315 18.1875 39.6253V24.5627C18.5298 24.6841 18.8979 24.7503 19.2812 24.7503H39.625C40.8311 24.7503 41.8125 25.7316 41.8125 26.9378V30.0551H38.1484ZM41.8125 34.43H38.1484C37.5453 34.4301 37.0546 33.9394 37.0546 33.3363C37.0546 32.7332 37.5453 32.2425 38.1484 32.2425H41.8125V34.43ZM25.1398 22.5629L31.6541 18.6039L32.8188 20.5749C32.8411 20.6288 32.8668 20.6819 32.8986 20.733C32.9224 20.7714 32.9487 20.8071 32.9762 20.8414L33.9934 22.5629H25.1398ZM36.5343 22.5628L35.3246 20.5156L37.1717 19.3701L39.1179 22.5628H36.5343Z" fill="url(#paint0_linear_20005128_10908)"/>
</g>
<defs>
<linearGradient id="paint0_linear_20005128_10908" x1="16" y1="30.0673" x2="43.9999" y2="30.0673" gradientUnits="userSpaceOnUse">
<stop stop-color="#6366F1"/>
<stop offset="0.5" stop-color="#8B5CF6"/>
<stop offset="1" stop-color="#D946EF"/>
</linearGradient>
<clipPath id="clip0_20005128_10908">
<rect width="28" height="28" fill="white" transform="translate(16 16)"/>
</clipPath>
</defs>
</svg>
